# xmcd CD database file
#
# Track frame offsets:
#	150
#	97502
#	123275
#	146547
#	168707
#	191260
#	257975
#
# Disc length: 3833 seconds
#
# Revision: 2
# Processed by: cddbd v1.5.2PL0 Copyright (c) Steve Scherf et al.
# Submitted via: CDex 1.51
#
DISCID=560ef707
DTITLE=Werner Lüdi - Lüdi Solo - Lucendro
DYEAR=1993
DGENRE=Jazz
TTITLE0=Jenissei
TTITLE1=Sebago
TTITLE2=Jürmala
TTITLE3=Las Hadas
TTITLE4=Stromboli
TTITLE5=Lagavulin
TTITLE6=Solovki
EXTD=YEAR: 1993
EXTT0=
EXTT1=
EXTT2=
EXTT3=
EXTT4=
EXTT5=
EXTT6=
PLAYORDER=
